<svg xmlns="http://www.w3.org/2000/svg" viewBox="0 0 21.17 21.17"><defs><style>.cls-1{fill:#00aed8;}</style></defs><title>Delete</title><g id="Layer_2" data-name="Layer 2"><g id="Layer_1-2" data-name="Layer 1"><path class="cls-1" d="M20.88,5a1,1,0,0,0,0-1.42L17.58.29a1,1,0,0,0-1.42,0L11.29,5.16a1,1,0,0,1-1.41,0L5,.29a1,1,0,0,0-1.42,0L.29,3.59A1,1,0,0,0,.29,5L5.16,9.88a1,1,0,0,1,0,1.41L.29,16.16a1,1,0,0,0,0,1.42l3.3,3.3a1,1,0,0,0,1.42,0L9.88,16a1,1,0,0,1,1.41,0l4.87,4.87a1,1,0,0,0,1.42,0l3.3-3.3a1,1,0,0,0,0-1.42L16,11.29a1,1,0,0,1,0-1.41Z"/></g></g></svg>