<svg xmlns="http://www.w3.org/2000/svg" viewBox="0 0 112 30"><defs><style>.cls-1{fill:#0078b8;}</style></defs><title>Recalculate</title><g id="Layer_2" data-name="Layer 2"><g id="Layer_1-2" data-name="Layer 1"><path class="cls-1" d="M78.3,14.47a1.85,1.85,0,0,0-1.93,1.94,1.84,1.84,0,0,0,1.93,1.93,1.94,1.94,0,1,0,0-3.87Z"/><path class="cls-1" d="M28,14.42a1.67,1.67,0,0,0-1.72,1.17H29.8C29.76,14.81,28.94,14.42,28,14.42Z"/><path class="cls-1" d="M44.13,14.47a1.85,1.85,0,0,0-1.93,1.94,1.84,1.84,0,0,0,1.93,1.93,1.94,1.94,0,1,0,0-3.87Z"/><path class="cls-1" d="M93.84,14.42a1.67,1.67,0,0,0-1.72,1.17h3.47C95.54,14.81,94.73,14.42,93.84,14.42Z"/><path class="cls-1" d="M19.35,11.68H16.73v3h2.64a1.44,1.44,0,0,0,1.53-1.45A1.53,1.53,0,0,0,19.35,11.68Z"/><path class="cls-1" d="M109.07,0H2.93A2.93,2.93,0,0,0,0,2.93V27.07A2.93,2.93,0,0,0,2.93,30H109.07A2.93,2.93,0,0,0,112,27.07V2.93A2.93,2.93,0,0,0,109.07,0ZM23.63,20.08H21.07l-2.66-3.41H16.73v3.41H14.42V9.69h4.93a3.52,3.52,0,0,1,3.84,3.5,3.12,3.12,0,0,1-2.4,3.27l2.85,3.44Zm8.08-2.92H26.33c.1.71.79,1.32,2,1.32a3,3,0,0,0,1.9-.58l1.2,1.34a4.57,4.57,0,0,1-3.15,1.08c-2.66,0-4.11-1.6-4.11-3.93A3.64,3.64,0,0,1,28,12.6C30.54,12.6,32.19,14.14,31.71,17.15Zm5,3.16a3.68,3.68,0,0,1-4-3.86,3.78,3.78,0,0,1,4-3.87,3.27,3.27,0,0,1,2.66,1L38.18,15a2.19,2.19,0,0,0-1.38-.43,1.82,1.82,0,0,0-1.93,1.91,1.8,1.8,0,0,0,1.89,1.84,2.3,2.3,0,0,0,1.48-.55l1.35,1.4A3.75,3.75,0,0,1,36.72,20.31Zm11.43-.24H46.22l-.12-.92a2.67,2.67,0,0,1-2.26,1.14,3.62,3.62,0,0,1-3.79-3.89,3.61,3.61,0,0,1,3.84-3.83,2.47,2.47,0,0,1,2.17,1l.07-.85h2Zm4,0H50V9.7h2.12Zm5.42.24a3.68,3.68,0,0,1-4-3.86,3.78,3.78,0,0,1,4-3.87,3.27,3.27,0,0,1,2.66,1L59,15a2.19,2.19,0,0,0-1.38-.43,1.82,1.82,0,0,0-1.93,1.91,1.8,1.8,0,0,0,1.89,1.84,2.3,2.3,0,0,0,1.48-.55l1.35,1.4A3.75,3.75,0,0,1,57.54,20.31Zm11.3-.22H66.91l-.07-.89a2.66,2.66,0,0,1-2.37,1.11c-1.65,0-3.06-.74-3.06-3.59v-4h2.15v4c0,1.14.51,1.71,1.51,1.71a1.7,1.7,0,0,0,1.66-1.8V12.74h2.11Zm4,0H70.69V9.7h2.12Zm9.52,0H80.4l-.12-.92A2.66,2.66,0,0,1,78,20.3a3.62,3.62,0,0,1-3.79-3.89,3.61,3.61,0,0,1,3.84-3.83,2.47,2.47,0,0,1,2.17,1l.07-.85h2Zm5.38.22c-1.59.07-2.79-.62-2.79-2.91V14.57H83.61V12.79h1.31V11L87,10.74v2H88.9v1.78H87v2.82c0,.77.43,1,.83,1a2.33,2.33,0,0,0,.89-.18L89.25,20A4.55,4.55,0,0,1,87.7,20.3Zm9.8-3.15H92.11c.1.71.79,1.32,2,1.32a3,3,0,0,0,1.9-.58l1.2,1.34a4.57,4.57,0,0,1-3.15,1.08c-2.66,0-4.11-1.6-4.11-3.93a3.64,3.64,0,0,1,3.89-3.79C96.33,12.6,98,14.14,97.5,17.15Z"/></g></g></svg>